<?xml version="1.0" encoding="UTF-8"?>
<svg xmlns="http://www.w3.org/2000/svg" width="48" height="48" viewBox="0 0 48 48">
  <defs>
    <linearGradient id="bgGrad" x1="0%" y1="0%" x2="100%" y2="100%">
      <stop offset="0%" stop-color="#A855F7"/>
      <stop offset="100%" stop-color="#3B82F6"/>
    </linearGradient>
    <linearGradient id="noteGrad" x1="0%" y1="0%" x2="0%" y2="100%">
      <stop offset="0%" stop-color="#FFFFFF" stop-opacity="1"/>
      <stop offset="100%" stop-color="#FFFFFF" stop-opacity="0.9"/>
    </linearGradient>
    <filter id="softShadow" x="-20%" y="-20%" width="140%" height="140%">
      <feGaussianBlur in="SourceAlpha" stdDeviation="1.2"/>
      <feOffset dx="0" dy="1" result="offsetBlur"/>
      <feMerge>
        <feMergeNode/>
        <feMergeNode in="SourceGraphic"/>
      </feMerge>
    </filter>
  </defs>
  <rect x="2" y="2" width="44" height="44" rx="11" fill="url(#bgGrad)"/>
  <rect x="2" y="2" width="44" height="22" rx="11" fill="#FFFFFF" opacity="0.08"/>
  <path d="M20 13 L20 28.5 C20 28.5 18.5 27 15.5 27 C12.5 27 10 29.2 10 32 C10 34.8 12.5 37 15.5 37 C18.5 37 21 34.8 21 32 L21 18 L31 15 L31 24.5 C31 24.5 29.5 23 26.5 23 C23.5 23 21 25.2 21 28 C21 30.8 23.5 33 26.5 33 C29.5 33 32 30.8 32 28 L32 11 Z" fill="url(#noteGrad)" filter="url(#softShadow)"/>
  <circle cx="15.5" cy="32" r="3.5" fill="url(#noteGrad)" filter="url(#softShadow)"/>
  <circle cx="26.5" cy="28" r="3.5" fill="url(#noteGrad)" filter="url(#softShadow)"/>
  <circle cx="37" cy="34" r="5" fill="#FFFFFF" opacity="0.95" filter="url(#softShadow)"/>
  <path d="M35.5 31.5 L35.5 36.5 L39.5 34 Z" fill="#3B82F6"/>
</svg>
